<svg
    xmlns="http://www.w3.org/2000/svg"
    viewBox="0 0 656 155"
    id="button_background">
    <path
        id="path"
        d="M 19.08 9 L 637.92 9 C 642.713 9 647.315 10.906 650.704 14.296 C 654.094 17.685 656 22.287 656 27.08 L 656 136.92 C 656 140.093 655.164 143.212 653.578 145.96 C 651.991 148.708 649.708 150.991 646.96 152.578 C 644.212 154.164 641.093 155 637.92 155 L 19.08 155 C 15.907 155 12.788 154.164 10.04 152.578 C 7.292 150.991 5.009 148.708 3.422 145.96 C 1.836 143.212 1 140.093 1 136.92 L 1 27.08 C 1 22.287 2.906 17.685 6.296 14.296 C 9.685 10.906 14.287 9 19.08 9 Z"
        fill="#fffda7"
        fill-opacity="0.46"
        stroke-opacity="0.46"/>
    <path
        id="path_1"
        d="M 18.08 0 L 636.92 0 C 641.713 0 646.315 1.906 649.704 5.296 C 653.094 8.685 655 13.287 655 18.08 L 655 127.92 C 655 132.713 653.094 137.315 649.704 140.704 C 646.315 144.094 641.713 146 636.92 146 L 18.08 146 C 13.287 146 8.685 144.094 5.296 140.704 C 1.906 137.315 0 132.713 0 127.92 L 0 18.08 C 0 13.287 1.906 8.685 5.296 5.296 C 8.685 1.906 13.287 0 18.08 0 Z"
        fill="#fffda7"
        fill-opacity="1"
        stroke-opacity="1"/>
</svg>
