<svg
    xmlns="http://www.w3.org/2000/svg"
    viewBox="0 0 80 80"
    id="vector">
    <path
        id="path_1"
        d="M 40.2 0 C 30.593 0.002 21.297 3.447 14.009 9.706 C 6.721 15.966 1.912 24.635 0.46 34.132 C -0.993 43.628 1.006 53.338 6.09 61.49 L 2.62 77.65 L 16.15 72.42 C 24.371 78.563 34.639 81.332 44.834 80.154 C 55.029 78.977 64.396 73.94 71 66.084 C 77.603 58.228 80.955 48.135 80.363 37.889 C 79.77 27.644 75.278 18.004 67.813 10.961 C 60.348 3.919 50.463 -0.005 40.2 0 Z M 42.54 61 C 41.704 61.768 40.606 62.19 39.47 62.18 C 38.313 62.194 37.191 61.781 36.32 61.02 C 35.876 60.61 35.527 60.107 35.299 59.547 C 35.071 58.987 34.969 58.384 35 57.78 C 34.987 57.197 35.096 56.617 35.32 56.078 C 35.544 55.539 35.878 55.053 36.3 54.65 C 36.72 54.236 37.218 53.91 37.766 53.692 C 38.314 53.474 38.9 53.368 39.49 53.38 C 40.265 53.369 41.03 53.566 41.703 53.951 C 42.376 54.336 42.934 54.894 43.319 55.567 C 43.704 56.24 43.901 57.005 43.89 57.78 C 43.912 58.383 43.803 58.983 43.57 59.539 C 43.337 60.095 42.985 60.594 42.54 61 Z M 53.82 34.6 C 53.182 35.803 52.367 36.902 51.4 37.86 Q 49.99 39.24 46.4 42.48 C 45.836 42.989 45.299 43.526 44.79 44.09 C 44.445 44.48 44.143 44.906 43.89 45.36 C 43.698 45.73 43.544 46.119 43.43 46.52 C 43.33 46.9 43.16 47.63 42.95 48.6 C 42.74 49.57 43.16 50.49 42.48 51.09 L 35.98 51.09 C 35.28 50.29 35.8 49 35.8 47.68 C 35.768 46.203 36.03 44.735 36.57 43.36 C 37.044 42.181 37.721 41.095 38.57 40.15 C 39.657 39.012 40.802 37.93 42 36.91 C 43.26 35.81 44.17 34.97 44.73 34.41 C 45.287 33.855 45.765 33.226 46.15 32.54 C 46.533 31.852 46.732 31.077 46.73 30.29 C 46.741 29.536 46.59 28.788 46.286 28.098 C 45.982 27.408 45.533 26.791 44.97 26.29 C 43.727 25.184 42.102 24.602 40.44 24.67 C 39.572 24.597 38.697 24.705 37.873 24.988 C 37.049 25.27 36.292 25.72 35.65 26.31 C 34.593 27.822 33.705 29.445 33 31.15 L 25.37 31.26 C 25.37 31.26 25.87 27.03 27.07 25.11 C 28.377 23.092 30.186 21.448 32.32 20.34 C 34.806 19.036 37.583 18.386 40.39 18.45 C 43.011 18.383 45.614 18.913 48 20 C 50.049 20.937 51.801 22.422 53.06 24.29 C 54.231 26.038 54.855 28.096 54.85 30.2 C 54.886 31.74 54.531 33.264 53.82 34.63 Z"
        fill="#fec901"/>
</svg>
