<svg
    xmlns="http://www.w3.org/2000/svg"
    viewBox="0 0 332 113"
    id="ic_back_background">
    <path
        id="path_1"
        d="M 18.59 6.61 L 314.51 6.61 C 317.683 6.61 320.802 7.446 323.55 9.032 C 326.298 10.619 328.581 12.902 330.168 15.65 C 331.754 18.398 332.59 21.517 332.59 24.69 L 332.59 95.72 C 332.59 100.513 330.684 105.115 327.294 108.504 C 323.905 111.894 319.303 113.8 314.51 113.8 L 18.59 113.8 C 15.417 113.8 12.298 112.964 9.55 111.378 C 6.802 109.791 4.519 107.508 2.932 104.76 C 1.346 102.012 0.51 98.893 0.51 95.72 L 0.51 24.69 C 0.51 19.897 2.416 15.295 5.806 11.906 C 9.195 8.516 13.797 6.61 18.59 6.61 Z"
        fill="#050505"
        fill-opacity="0.46"
        stroke-opacity="0.46"/>
    <path
        id="path_2"
        d="M 18.08 0 L 314 0 C 318.793 0 323.395 1.906 326.784 5.296 C 330.174 8.685 332.08 13.287 332.08 18.08 L 332.08 89.11 C 332.08 93.903 330.174 98.505 326.784 101.894 C 323.395 105.284 318.793 107.19 314 107.19 L 18.08 107.19 C 13.287 107.19 8.685 105.284 5.296 101.894 C 1.906 98.505 0 93.903 0 89.11 L 0 18.08 C 0 13.287 1.906 8.685 5.296 5.296 C 8.685 1.906 13.287 0 18.08 0 Z"
        fill="#050505"/>
</svg>
