<svg
    xmlns="http://www.w3.org/2000/svg"
    viewBox="0 0 24 24"
    id="ic_refresh">
    <g
        id="group"
        transform="translate(12 12) scale(1.25 1.25) translate(-12 -12)">
        <path
            id="path"
            d="M 17.65 6.35 C 16.2 4.9 14.21 4 12 4 C 7.58 4 4.01 7.58 4.01 12 C 4.01 16.42 7.58 20 12 20 C 15.73 20 18.84 17.45 19.73 14 L 17.65 14 C 16.83 16.33 14.61 18 12 18 C 8.69 18 6 15.31 6 12 C 6 8.69 8.69 6 12 6 C 13.66 6 15.14 6.69 16.22 7.78 L 13 11 L 20 11 L 20 4 L 17.65 6.35 Z"
            fill="#000000"/>
    </g>
</svg>
