<svg
    xmlns="http://www.w3.org/2000/svg"
    viewBox="0 0 984 342"
    id="ic_raffle_item">
    <path
        id="path"
        d="M 12 0 L 972 0 C 975.181 0 978.236 1.265 980.485 3.515 C 982.735 5.764 984 8.819 984 12 L 984 330 C 984 333.181 982.735 336.236 980.485 338.485 C 978.236 340.735 975.181 342 972 342 L 12 342 C 8.819 342 5.764 340.735 3.515 338.485 C 1.265 336.236 0 333.181 0 330 L 0 12 C 0 8.819 1.265 5.764 3.515 3.515 C 5.764 1.265 8.819 0 12 0 Z"
        fill="#fdde00"/>
    <g id="group">
        <path
            id="path_1"
            d="M 9 7.13 L 974 7.13 L 974 332.93 L 9 332.93 Z"
            fill="#191715"/>
    </g>
</svg>
