<svg
    xmlns="http://www.w3.org/2000/svg"
    viewBox="0 0 78 181"
    id="ic_spinner_tip">
    <path
        id="path_1"
        d="M 47.76 175 C 42.76 184.1 34.3 184.1 29.28 175 C 13.55 146.48 0 73.72 0 51.09 C 0 20.6 8 0 38.52 0 C 69.04 0 78 20.6 78 51.09 C 78 73.72 63.5 146.48 47.76 175 Z"
        fill="#ffcb00"/>
    <path
        id="path_2"
        d="M 64.94 42.79 C 64.956 48.616 62.991 54.277 59.37 58.841 C 55.749 63.404 50.682 66.604 45.005 67.913 C 39.329 69.222 33.372 68.563 28.119 66.045 C 22.865 63.527 18.62 59.297 16.084 54.053 C 13.548 48.808 12.868 42.854 14.157 37.172 C 15.446 31.491 18.628 26.413 23.179 22.776 C 27.73 19.139 33.384 17.155 39.21 17.15 C 46.014 17.155 52.547 19.857 57.366 24.66 C 62.186 29.463 64.911 35.986 64.94 42.79 Z"
        fill="#775a37"/>
</svg>
