<svg
    xmlns="http://www.w3.org/2000/svg"
    viewBox="0 0 249 249"
    id="ic_spinner_m">
    <path
        id="path"
        d="M 249 124.5 C 249.005 152.706 239.425 180.093 221.842 202.147 C 204.258 224.201 179.692 239.639 152.194 245.917 C 124.696 252.194 95.864 248.946 70.452 236.708 C 45.039 224.47 24.524 203.953 12.288 178.539 C 0.051 153.126 -3.194 124.294 3.085 96.796 C 9.365 69.299 24.806 44.734 46.861 27.152 C 68.916 9.57 96.304 -0.007 124.51 0 C 157.514 0.005 189.199 13.133 212.535 36.472 C 235.872 59.81 248.997 91.496 249 124.5 Z"
        fill="#ffce90"/>
    <path
        id="path_1"
        d="M 223.55 124.5 C 223.55 150.746 213.113 175.945 194.554 194.504 C 175.995 213.063 150.796 223.5 124.55 223.5 C 98.304 223.5 73.105 213.063 54.546 194.504 C 35.987 175.945 25.55 150.746 25.55 124.5 C 25.55 98.254 35.987 73.055 54.546 54.496 C 73.105 35.937 98.304 25.5 124.55 25.5 C 150.796 25.5 175.995 35.937 194.554 54.496 C 213.113 73.055 223.55 98.254 223.55 124.5 Z"
        fill="#ffffff"/>
    <path
        id="path_2"
        d="M 202.18 124.5 C 202.185 142.093 196.212 159.176 185.246 172.933 C 174.28 186.69 158.958 196.322 141.807 200.239 C 124.656 204.157 106.672 202.134 90.821 194.503 C 74.969 186.872 62.171 174.077 54.535 158.227 C 46.9 142.378 44.873 124.394 48.786 107.242 C 52.7 90.09 62.327 74.766 76.081 63.797 C 89.836 52.827 106.917 46.85 124.51 46.85 C 145.098 46.85 164.864 55.036 179.424 69.592 C 193.984 84.148 202.175 103.912 202.18 124.5 Z"
        fill="#232323"/>
    <path
        id="path_3"
        d="M 105.31 175.51 L 106.01 175.51 L 106.01 110.59 L 115.4 175.51 L 131.26 175.51 L 140.17 109.08 L 140.17 175.51 L 162.53 175.51 L 162.53 77.11 L 129.31 77.11 L 123.42 123.11 L 119.79 98.11 C 118.79 90.11 117.73 83.11 116.79 77.19 L 83.65 77.19 L 83.65 162.31 Z"
        fill="#ffec90"/>
    <path
        id="path_4"
        d="M 103.2 169.01 L 87.42 157.87 L 87.42 79.89 L 90.21 96.6 L 103.2 169.01 Z"
        fill="#ffffff"
        fill-opacity="0.7"
        stroke-opacity="0.7"/>
    <path
        id="path_5"
        d="M 160.76 77.11 L 160.76 77.11 L 160.76 170.85 C 160.76 171.346 160.563 171.822 160.212 172.172 C 159.862 172.523 159.386 172.72 158.89 172.72 L 144.46 172.72 C 144.091 172.719 143.73 172.609 143.423 172.404 C 143.116 172.199 142.877 171.908 142.734 171.568 C 142.591 171.228 142.551 170.853 142.62 170.49 Z"
        fill="#ffd389"
        fill-opacity="0.7"
        stroke-opacity="0.7"/>
</svg>
