<svg
    xmlns="http://www.w3.org/2000/svg"
    viewBox="0 0 813 359"
    id="vector">
    <path
        id="path"
        d="M 516 129.94 Z"
        fill="#2d2a26"/>
    <path
        id="path_1"
        d="M 561.8 219.76 L 561.8 163 L 546.39 163 L 546.39 130 C 546.39 130 518.27 129.92 516.02 129.9 L 516.1 164.28 L 504 164.28 L 504 120.5 C 504 120.5 495.68 121.5 494.7 120.5 C 493.72 119.5 494.7 102.98 494.7 102.98 L 481.79 102.98 L 481.79 77 L 448.28 77 L 448.28 136.16 L 433.13 136.16 L 433.3 65.92 L 425.54 65.92 L 425.54 44.08 L 422.09 40.46 L 422.09 34.34 L 414.79 34.34 C 414.79 34.34 408.46 30.44 409.42 3.34 L 409.42 0 L 404 0 L 404 27.09 L 397.35 28.47 L 397.35 33.77 L 389.04 34.27 L 389.04 40 C 389.04 40 385.7 45.84 385.7 50.59 L 385.7 65.24 L 378.17 65.24 L 378.17 155.76 L 368.08 155.76 L 368.08 141.49 L 357.14 141.49 L 357.14 128.08 L 353.33 119.42 L 353.33 62.42 L 314.2 62.42 L 314.2 140 L 304.11 140 L 304.11 176.64 L 294.61 176.64 L 294.61 131.38 C 294.81 131.38 294.87 131.38 294.61 131.38 L 294.61 117.69 L 266.18 117.78 L 266.18 171.56 L 251.75 171.56 L 251.75 219.76 L 251.75 219.76 L 251.75 230.76 L 562 230.76 L 562 219.76 Z M 543.03 184.76 L 548.28 184.76 L 548.28 195.76 L 543 195.76 Z M 525.75 152.95 L 531 152.95 L 531 163.95 L 525.75 163.95 Z M 487.1 152 L 492.35 152 L 492.35 163 L 487.1 163 Z M 487.1 188.12 L 492.35 188.12 L 492.35 199.12 L 487.1 199.12 Z M 468.57 100 L 473.82 100 L 473.82 111 L 468.57 111 Z M 468.57 131.23 L 473.82 131.23 L 473.82 142.23 L 468.57 142.23 Z M 450.51 153.23 L 455.76 153.23 L 455.76 164.23 L 450.51 164.23 Z M 449.72 177.62 L 455 177.62 L 455 188.62 L 449.75 188.62 Z M 413.51 71.81 L 418.76 71.81 L 418.76 82.81 L 413.51 82.81 Z M 413.51 93.04 L 418.76 93.04 L 418.76 104.04 L 413.51 104.04 Z M 413.51 117.75 L 418.76 117.75 L 418.76 128.75 L 413.51 128.75 Z M 413.51 157.85 L 418.76 157.85 L 418.76 168.85 L 413.51 168.85 Z M 413.51 182.56 L 418.76 182.56 L 418.76 193.56 L 413.51 193.56 Z M 390.71 78 L 396 78 L 396 89 L 390.75 89 Z M 397.22 189.51 L 397.22 200.51 L 392 200.51 L 392 189.51 Z M 390.71 102.71 L 396 102.71 L 396 113.71 L 390.75 113.71 Z M 390.71 138.82 L 396 138.82 L 396 149.82 L 390.75 149.82 Z M 390.71 163.54 L 396 163.54 L 396 174.54 L 390.75 174.54 Z M 351.51 167.28 L 356.76 167.28 L 356.76 178.28 L 351.51 178.28 Z M 335.67 112 L 340.92 112 L 340.92 123 L 335.67 123 Z M 335.67 136.71 L 340.92 136.71 L 340.92 147.71 L 335.67 147.71 Z M 331.87 167.6 L 337.12 167.6 L 337.12 178.6 L 331.87 178.6 Z M 324.75 80.17 L 330 80.17 L 330 91.17 L 324.75 91.17 Z M 320.47 191.84 L 325.71 191.84 L 325.71 202.84 L 320.47 202.84 Z M 282.47 134.34 L 287.72 134.34 L 287.72 145.34 L 282.47 145.34 Z M 282.47 156.34 L 287.72 156.34 L 287.72 167.34 L 282.47 167.34 Z M 262.18 184.69 L 267.43 184.69 L 267.43 195.69 L 262.18 195.69 Z M 516.33 219.69 L 516.26 219.69"
        fill="#ffffff"/>
    <path
        id="path_2"
        d="M 130.62 214.08 L 192.32 214.08 L 192.32 242.55 L 167.62 242.55 L 167.62 269.55 L 190.73 269.55 L 190.73 296.62 L 167.62 296.62 L 167.62 327.9 L 194.77 327.9 L 194.77 356.37 L 130.62 356.37 Z"
        fill="#2d2a26"/>
    <path
        id="path_3"
        d="M 293.92 266.46 L 256.92 266.46 L 256.92 253.54 Q 256.92 241.33 255.86 238.25 C 255.15 236.19 253.49 235.17 250.86 235.17 C 248.58 235.17 247.02 236.05 246.2 237.8 C 245.38 239.55 245 244.08 245 251.34 L 245 319.64 C 245 326.02 245.41 330.23 246.23 332.24 C 247.05 334.25 248.69 335.24 251.15 335.24 C 252.312 335.337 253.475 335.055 254.465 334.437 C 255.454 333.819 256.217 332.897 256.64 331.81 Q 258.09 328.39 258.1 318.45 L 258.1 301.62 L 254.61 301.62 L 254.61 280 L 293.96 280 L 293.96 356.37 L 270.66 356.37 L 267.24 346.18 C 265.008 350.278 261.707 353.696 257.69 356.07 C 253.533 358.345 248.848 359.484 244.11 359.37 C 237.997 359.393 231.981 357.832 226.65 354.84 C 221.648 352.21 217.395 348.352 214.29 343.63 C 211.554 339.392 209.754 334.619 209.01 329.63 C 208.199 322.326 207.865 314.977 208.01 307.63 L 208.01 265.32 Q 208.01 244.92 210.2 235.7 Q 212.39 226.48 222.82 218.78 Q 233.23 211.09 249.76 211.09 Q 266.02 211.09 276.76 217.77 Q 287.5 224.45 290.76 233.63 Q 294 242.82 294.01 260.31 Z"
        fill="#2d2a26"/>
    <path
        id="path_4"
        d="M 379.4 214.08 L 400.57 356.37 L 362.75 356.37 L 360.75 330.8 L 347.53 330.8 L 345.3 356.37 L 307.05 356.37 L 325.92 214.08 Z M 359.8 305.57 Q 356.98 281.39 354.16 245.8 Q 348.5 286.69 347.05 305.57 Z"
        fill="#2d2a26"/>
    <path
        id="path_5"
        d="M 414.06 214.08 L 451.32 214.08 Q 466.44 214.08 474.57 216.45 Q 482.7 218.82 486.78 223.3 C 489.55 226.369 491.461 230.116 492.32 234.16 Q 493.78 240.54 493.77 253.89 L 493.77 266.28 Q 493.77 279.92 490.96 286.15 Q 488.15 292.38 480.64 295.73 Q 473.11 299.07 460.99 299.07 L 451.05 299.07 L 451.05 356.37 L 414.05 356.37 Z M 451.06 238.42 L 451.06 274.63 C 452.12 274.7 453.06 274.72 453.79 274.72 Q 458.89 274.72 460.86 272.22 C 462.19 270.55 462.86 267.08 462.86 261.81 L 462.86 250.11 Q 462.86 242.82 460.57 240.62 C 459 239.16 455.86 238.42 451.05 238.42 Z"
        fill="#2d2a26"/>
    <path
        id="path_6"
        d="M 592.56 297.4 Q 592.56 318.85 591.56 327.76 C 590.894 333.797 588.623 339.547 584.983 344.409 C 581.343 349.272 576.465 353.071 570.86 355.41 C 564.181 358.184 557 359.546 549.77 359.41 C 542.748 359.519 535.772 358.248 529.24 355.67 C 523.566 353.399 518.602 349.65 514.868 344.812 C 511.133 339.975 508.761 334.224 508 328.16 Q 506.94 319.37 506.94 297.4 L 506.94 273.06 Q 506.94 251.61 507.94 242.68 C 508.603 236.634 510.877 230.876 514.523 226.008 C 518.169 221.139 523.055 217.338 528.67 215 C 535.351 212.237 542.533 210.892 549.76 211.05 C 556.779 210.94 563.751 212.211 570.28 214.79 C 575.948 217.052 580.908 220.793 584.639 225.623 C 588.371 230.452 590.741 236.194 591.5 242.25 Q 592.57 251.04 592.56 273.02 Z M 555.56 250.64 Q 555.56 240.71 554.46 237.94 C 553.72 236.1 552.22 235.17 549.93 235.17 C 549.061 235.125 548.194 235.309 547.417 235.701 C 546.64 236.094 545.979 236.683 545.5 237.41 Q 544 239.66 544 250.64 L 544 317.09 Q 544 329.48 545 332.38 C 545.67 334.32 547.24 335.28 549.7 335.28 C 552.16 335.28 553.83 334.17 554.53 331.94 C 555.23 329.71 555.59 324.41 555.59 316.03 Z"
        fill="#2d2a26"/>
    <path
        id="path_7"
        d="M 639.77 214.08 L 639.77 327.9 L 662.26 327.9 L 662.26 356.37 L 602.76 356.37 L 602.76 214.08 Z"
        fill="#2d2a26"/>
    <path
        id="path_8"
        d="M 711.83 214.08 L 711.83 356.37 L 674.83 356.37 L 674.83 214.08 Z"
        fill="#2d2a26"/>
    <path
        id="path_9"
        d="M 32.93 356.37 L 33.93 356.37 L 33.93 262.5 L 47.51 356.37 L 70.5 356.37 L 83.37 260.31 L 83.37 356.37 L 115.71 356.37 L 115.71 214.08 L 67.62 214.08 L 59.11 280.53 L 53.86 244.33 Q 51.59 226.91 49.47 214.08 L 1.59 214.08 L 1.59 337.18 Z"
        fill="#2d2a26"/>
    <path
        id="path_10"
        d="M 737.57 281.14 Q 742.07 285.27 755.86 294.41 Q 769.65 303.55 773.17 307.33 Q 776.61 311.2 776.6 323.77 Q 776.6 329.49 774.8 332.38 C 774.236 333.32 773.424 334.087 772.455 334.598 C 771.485 335.109 770.394 335.345 769.3 335.28 Q 765.61 335.28 764.16 332.99 C 763.16 331.47 762.71 328.05 762.71 322.71 L 762.71 305.4 L 728.35 305.4 L 728.35 314.71 Q 728.35 330.71 731.6 339.41 Q 734.85 348.11 745.36 353.74 Q 755.85 359.37 770.71 359.37 C 771.6 359.37 772.44 359.28 773.31 359.24 L 809.81 336.87 L 809.81 337 C 811.1 332.42 811.81 327.5 811.81 320 Q 811.81 299.08 805.39 289.67 Q 798.97 280.26 774.27 265.6 Q 765.65 260.52 763.81 256.9 Q 761.97 253.28 761.88 246.18 C 761.88 242.48 762.45 239.73 763.6 237.91 C 764.115 237.04 764.858 236.327 765.747 235.846 C 766.636 235.365 767.64 235.135 768.65 235.18 C 769.494 235.099 770.345 235.24 771.118 235.591 C 771.89 235.942 772.556 236.49 773.05 237.18 C 773.92 238.54 774.36 241.67 774.36 246.59 L 774.36 257.13 L 808.73 257.13 L 808.73 251.51 Q 808.73 234.51 805.43 227.51 Q 802.13 220.51 791.98 215.78 Q 781.84 211.11 767.42 211.12 Q 754.24 211.12 744.92 215.38 Q 735.6 219.64 731.43 227.2 Q 727.25 234.78 727.25 251.11 Q 727.25 262.45 730.2 269.74 C 731.788 274.036 734.304 277.929 737.57 281.14 Z"
        fill="#2d2a26"/>
    <path
        id="path_11"
        d="M 130.62 206.11 L 192.32 206.11 L 192.32 234.59 L 167.62 234.59 L 167.62 261.59 L 190.73 261.59 L 190.73 288.65 L 167.62 288.65 L 167.62 319.94 L 194.77 319.94 L 194.77 348.42 L 130.62 348.42 Z"
        fill="#ffd100"/>
    <path
        id="path_12"
        d="M 194.77 350 L 130.62 350 C 130.198 350 129.794 349.832 129.496 349.534 C 129.198 349.236 129.03 348.832 129.03 348.41 L 129.03 206.11 C 129.03 205.688 129.198 205.284 129.496 204.986 C 129.794 204.688 130.198 204.52 130.62 204.52 L 192.32 204.52 C 192.742 204.52 193.146 204.688 193.444 204.986 C 193.742 205.284 193.91 205.688 193.91 206.11 L 193.91 234.59 C 193.91 235.012 193.743 235.418 193.445 235.718 C 193.147 236.018 192.742 236.187 192.32 236.19 L 169.21 236.19 L 169.21 260 L 190.73 260 C 191.152 260 191.556 260.168 191.854 260.466 C 192.152 260.764 192.32 261.168 192.32 261.59 L 192.32 288.65 C 192.32 289.072 192.153 289.478 191.855 289.778 C 191.557 290.078 191.152 290.247 190.73 290.25 L 169.21 290.25 L 169.21 318.35 L 194.77 318.35 C 195.192 318.35 195.598 318.517 195.898 318.815 C 196.198 319.113 196.367 319.518 196.37 319.94 L 196.37 348.42 C 196.365 348.841 196.194 349.243 195.894 349.538 C 195.595 349.834 195.191 350 194.77 350 Z M 132.21 346.82 L 193.21 346.82 L 193.21 321.52 L 167.62 321.52 C 167.198 321.52 166.794 321.352 166.496 321.054 C 166.198 320.756 166.03 320.352 166.03 319.93 L 166.03 288.64 C 166.03 288.218 166.198 287.814 166.496 287.516 C 166.794 287.218 167.198 287.05 167.62 287.05 L 189.14 287.05 L 189.14 263.17 L 167.62 263.17 C 167.198 263.17 166.794 263.002 166.496 262.704 C 166.198 262.406 166.03 262.002 166.03 261.58 L 166.03 234.58 C 166.03 234.158 166.198 233.754 166.496 233.456 C 166.794 233.158 167.198 232.99 167.62 232.99 L 190.72 232.99 L 190.72 207.71 L 132.21 207.71 Z"
        fill="#2d2a26"/>
    <path
        id="path_13"
        d="M 293.92 258.5 L 256.92 258.5 L 256.92 245.58 Q 256.92 233.36 255.86 230.29 C 255.15 228.23 253.49 227.21 250.86 227.21 C 248.58 227.21 247.02 228.09 246.2 229.84 C 245.38 231.59 245 236.12 245 243.38 L 245 311.68 Q 245 321.25 246.23 324.28 Q 247.46 327.31 251.15 327.28 C 252.312 327.377 253.475 327.095 254.465 326.477 C 255.454 325.859 256.217 324.937 256.64 323.85 Q 258.09 320.43 258.1 310.49 L 258.1 293.66 L 254.61 293.66 L 254.61 272 L 293.96 272 L 293.96 348.37 L 270.66 348.37 L 267.24 338.18 C 265.008 342.278 261.707 345.696 257.69 348.07 C 253.532 350.342 248.847 351.477 244.11 351.36 C 237.998 351.386 231.982 349.829 226.65 346.84 C 221.648 344.21 217.395 340.352 214.29 335.63 C 211.556 331.391 209.756 326.618 209.01 321.63 C 208.199 314.326 207.865 306.977 208.01 299.63 L 208.01 257.36 Q 208.01 236.96 210.2 227.74 Q 212.39 218.52 222.82 210.82 Q 233.23 203.13 249.76 203.13 Q 266.02 203.13 276.76 209.81 Q 287.5 216.49 290.76 225.67 Q 294 234.85 294.01 252.35 Z"
        fill="#ffd100"/>
    <path
        id="path_14"
        d="M 244.11 353 C 237.729 353.02 231.449 351.394 225.88 348.28 C 220.647 345.514 216.196 341.472 212.94 336.53 C 210.091 332.093 208.214 327.104 207.43 321.89 C 206.595 314.504 206.241 307.072 206.37 299.64 L 206.37 257.36 C 206.37 243.7 207.12 233.61 208.6 227.36 C 210.16 220.85 214.6 214.85 221.83 209.53 C 229.06 204.21 238.39 201.53 249.71 201.53 C 260.8 201.53 270.16 203.86 277.53 208.46 C 284.9 213.06 289.88 218.69 292.17 225.13 C 294.38 231.4 295.51 240.55 295.51 252.35 L 295.51 258.5 C 295.51 258.922 295.342 259.326 295.044 259.624 C 294.746 259.922 294.342 260.09 293.92 260.09 L 256.92 260.09 C 256.498 260.09 256.092 259.923 255.792 259.625 C 255.492 259.327 255.323 258.922 255.32 258.5 L 255.32 245.58 C 255.32 235.72 254.79 232.1 254.32 230.8 C 254 229.87 253.32 228.8 250.82 228.8 C 248.68 228.8 247.97 229.72 247.6 230.52 C 247.23 231.32 246.52 234.22 246.52 243.38 L 246.52 311.68 C 246.52 319.32 247.13 322.43 247.63 323.68 C 248.02 324.63 248.76 325.68 251.08 325.68 C 251.925 325.769 252.775 325.575 253.498 325.13 C 254.222 324.686 254.778 324.014 255.08 323.22 C 255.68 321.79 256.41 318.41 256.41 310.48 L 256.41 295.25 L 254.51 295.25 C 254.088 295.25 253.684 295.082 253.386 294.784 C 253.088 294.486 252.92 294.082 252.92 293.66 L 252.92 272 C 252.92 271.578 253.088 271.174 253.386 270.876 C 253.684 270.578 254.088 270.41 254.51 270.41 L 293.86 270.41 C 294.282 270.41 294.686 270.578 294.984 270.876 C 295.282 271.174 295.45 271.578 295.45 272 L 295.45 348.37 C 295.45 348.792 295.282 349.196 294.984 349.494 C 294.686 349.792 294.282 349.96 293.86 349.96 L 270.66 349.96 C 270.327 349.961 270.002 349.857 269.731 349.663 C 269.46 349.47 269.257 349.195 269.15 348.88 L 266.79 341.83 C 264.604 344.937 261.772 347.537 258.49 349.45 C 254.091 351.872 249.131 353.096 244.11 353 Z M 249.71 204.73 C 239.09 204.73 230.34 207.21 223.71 212.11 C 217.08 217.01 213.07 222.36 211.71 228.11 C 210.28 234.11 209.56 243.95 209.56 257.36 L 209.56 299.63 C 209.42 306.911 209.754 314.193 210.56 321.43 C 211.267 326.195 212.971 330.758 215.56 334.82 C 218.531 339.308 222.586 342.975 227.35 345.48 C 232.449 348.333 238.197 349.825 244.04 349.81 C 248.5 349.922 252.913 348.856 256.83 346.72 C 260.614 344.493 263.724 341.282 265.83 337.43 C 266.033 337.072 266.368 336.807 266.762 336.69 C 267.157 336.574 267.582 336.615 267.947 336.805 C 268.312 336.995 268.589 337.32 268.72 337.71 L 271.78 346.82 L 292.29 346.82 L 292.29 273.63 L 256.16 273.63 L 256.16 292.07 L 258.06 292.07 C 258.482 292.07 258.886 292.238 259.184 292.536 C 259.482 292.834 259.65 293.238 259.65 293.66 L 259.65 310.53 C 259.65 317.42 259.13 321.99 258.07 324.53 C 257.522 325.911 256.547 327.083 255.289 327.874 C 254.031 328.665 252.553 329.035 251.07 328.93 C 247.14 328.93 245.42 326.74 244.67 324.93 C 243.77 322.69 243.33 318.37 243.33 311.73 L 243.33 243.43 C 243.33 233.36 244.11 230.5 244.7 229.22 C 245.47 227.6 247.14 225.67 250.81 225.67 C 255.01 225.67 256.67 227.93 257.32 229.82 C 258.09 232.07 258.47 237.24 258.47 245.63 L 258.47 256.96 L 292.28 256.96 L 292.28 252.4 C 292.28 240.97 291.22 232.17 289.12 226.25 C 287.12 220.5 282.6 215.44 275.81 211.25 C 269.02 207.06 260.19 204.72 249.71 204.72 Z"
        fill="#2d2a26"/>
    <path
        id="path_15"
        d="M 379.4 206.11 L 400.57 348.41 L 362.75 348.41 L 360.75 322.84 L 347.53 322.84 L 345.3 348.41 L 307.05 348.41 L 325.92 206.11 Z M 359.8 297.61 Q 356.98 273.43 354.16 237.84 Q 348.5 278.71 347.05 297.61 Z"
        fill="#ffd100"/>
    <path
        id="path_16"
        d="M 400.57 350 L 362.75 350 C 362.35 350.001 361.964 349.852 361.669 349.581 C 361.375 349.311 361.193 348.939 361.16 348.54 L 359.29 324.43 L 349 324.43 L 346.9 348.55 C 346.865 348.949 346.68 349.32 346.384 349.588 C 346.087 349.857 345.7 350.004 345.3 350 L 307.05 350 C 306.823 350.002 306.598 349.955 306.391 349.862 C 306.184 349.769 305.999 349.631 305.85 349.46 C 305.7 349.289 305.589 349.088 305.524 348.871 C 305.458 348.654 305.44 348.425 305.47 348.2 L 324.34 205.91 C 324.391 205.527 324.579 205.174 324.869 204.919 C 325.16 204.663 325.533 204.521 325.92 204.52 L 379.4 204.52 C 379.782 204.52 380.152 204.658 380.442 204.907 C 380.732 205.157 380.923 205.502 380.98 205.88 L 402.14 348.18 C 402.184 348.482 402.141 348.79 402.015 349.067 C 401.889 349.345 401.685 349.58 401.429 349.746 C 401.173 349.911 400.875 349.999 400.57 350 Z M 364.22 346.82 L 398.72 346.82 L 378 207.71 L 327.32 207.71 L 308.86 346.82 L 343.86 346.82 L 345.96 322.7 C 345.995 322.303 346.178 321.934 346.472 321.665 C 346.767 321.397 347.152 321.248 347.55 321.25 L 360.78 321.25 C 361.18 321.249 361.566 321.398 361.861 321.669 C 362.155 321.939 362.337 322.311 362.37 322.71 Z M 359.8 299.2 L 347.05 299.2 C 346.83 299.2 346.613 299.154 346.412 299.067 C 346.211 298.979 346.03 298.851 345.88 298.69 C 345.731 298.53 345.617 298.341 345.547 298.134 C 345.476 297.927 345.45 297.708 345.47 297.49 C 346.47 284.92 348.83 264.77 352.58 237.63 C 352.625 237.236 352.819 236.874 353.122 236.617 C 353.425 236.361 353.814 236.23 354.21 236.25 C 354.602 236.266 354.974 236.424 355.258 236.694 C 355.541 236.965 355.716 237.33 355.75 237.72 C 357.61 261.25 359.51 281.34 361.38 297.43 C 361.416 297.728 361.367 298.03 361.237 298.301 C 361.108 298.572 360.904 298.8 360.649 298.96 C 360.395 299.119 360.1 299.202 359.8 299.2 Z M 348.8 296.02 L 358 296.02 C 356.59 283.7 355.17 269.13 353.76 252.57 C 351.29 271.33 349.61 285.9 348.78 296 Z"
        fill="#2d2a26"/>
    <path
        id="path_17"
        d="M 414.06 206.11 L 451.32 206.11 Q 466.44 206.11 474.57 208.49 Q 482.7 210.87 486.78 215.34 C 489.552 218.408 491.463 222.155 492.32 226.2 Q 493.78 232.58 493.77 245.93 L 493.77 258.32 Q 493.77 271.96 490.96 278.18 Q 488.15 284.4 480.64 287.77 Q 473.11 291.12 460.99 291.11 L 451.05 291.11 L 451.05 348.41 L 414.05 348.41 Z M 451.06 230.46 L 451.06 266.67 C 452.12 266.74 453.06 266.76 453.79 266.76 Q 458.89 266.76 460.86 264.26 C 462.19 262.59 462.86 259.11 462.86 253.85 L 462.86 242.15 C 462.86 237.29 462.1 234.15 460.57 232.66 C 459.04 231.17 455.86 230.46 451.05 230.46 Z"
        fill="#ffd100"/>
    <path
        id="path_18"
        d="M 451.05 350 L 414.05 350 C 413.628 350 413.222 349.833 412.922 349.535 C 412.622 349.237 412.453 348.832 412.45 348.41 L 412.45 206.11 C 412.453 205.688 412.622 205.283 412.922 204.985 C 413.222 204.687 413.628 204.52 414.05 204.52 L 451.31 204.52 C 461.47 204.52 469.44 205.34 475 206.96 C 480.56 208.58 485.06 211.09 487.95 214.27 C 490.897 217.547 492.935 221.54 493.86 225.85 C 494.86 230.23 495.35 236.85 495.35 245.93 L 495.35 258.32 C 495.35 267.72 494.35 274.43 492.4 278.84 C 490.45 283.25 486.63 286.84 481.27 289.22 C 476.08 291.53 469.27 292.7 460.98 292.7 L 452.64 292.7 L 452.64 348.41 C 452.637 348.831 452.469 349.234 452.171 349.531 C 451.874 349.829 451.471 349.997 451.05 350 Z M 415.65 346.82 L 449.46 346.82 L 449.46 291.11 C 449.46 290.688 449.628 290.284 449.926 289.986 C 450.224 289.688 450.628 289.52 451.05 289.52 L 461 289.52 C 468.82 289.52 475.22 288.44 480 286.31 C 484.78 284.18 487.8 281.31 489.52 277.53 C 491.24 273.75 492.19 267.13 492.19 258.32 L 492.19 245.93 C 492.19 237.17 491.72 230.65 490.77 226.55 C 489.967 222.779 488.192 219.283 485.62 216.41 C 483.12 213.67 479.25 211.52 474.13 210.02 C 469.01 208.52 461.19 207.71 451.33 207.71 L 415.65 207.71 Z M 453.78 268.35 C 452.99 268.35 452.05 268.35 450.96 268.26 C 450.554 268.237 450.172 268.059 449.893 267.764 C 449.615 267.468 449.459 267.076 449.46 266.67 L 449.46 230.46 C 449.46 230.038 449.628 229.634 449.926 229.336 C 450.224 229.038 450.628 228.87 451.05 228.87 C 456.34 228.87 459.8 229.73 461.65 231.51 C 463.5 233.29 464.42 236.78 464.42 242.15 L 464.42 253.85 C 464.42 259.63 463.69 263.25 462.1 265.25 C 460.51 267.25 457.68 268.35 453.78 268.35 Z M 452.65 265.15 C 453.06 265.15 453.44 265.15 453.78 265.15 C 456.65 265.15 458.61 264.51 459.6 263.25 C 460.35 262.31 461.24 259.91 461.24 253.83 L 461.24 242.13 C 461.24 236.37 460.11 234.43 459.44 233.79 C 458.77 233.15 457.15 232.25 452.65 232.07 Z"
        fill="#2d2a26"/>
    <path
        id="path_19"
        d="M 592.56 289.44 Q 592.56 310.89 591.56 319.8 C 590.894 325.837 588.623 331.587 584.983 336.449 C 581.343 341.312 576.465 345.111 570.86 347.45 C 564.178 350.207 556.997 351.552 549.77 351.4 C 542.749 351.512 535.773 350.245 529.24 347.67 C 523.571 345.403 518.611 341.659 514.877 336.829 C 511.142 331.999 508.768 326.257 508 320.2 Q 506.94 311.41 506.94 289.44 L 506.94 265.09 Q 506.94 243.66 507.94 234.72 C 508.608 228.683 510.882 222.935 514.524 218.074 C 518.166 213.214 523.044 209.417 528.65 207.08 C 535.327 204.3 542.509 202.938 549.74 203.08 C 556.758 202.972 563.729 204.239 570.26 206.81 C 575.928 209.076 580.886 212.819 584.618 217.65 C 588.349 222.48 590.719 228.224 591.48 234.28 Q 592.55 243.07 592.54 265.04 Z M 555.56 242.68 Q 555.56 232.75 554.46 229.98 C 553.72 228.14 552.22 227.21 549.93 227.21 C 549.061 227.165 548.194 227.349 547.417 227.741 C 546.64 228.134 545.979 228.723 545.5 229.45 Q 544 231.7 544 242.68 L 544 309.12 Q 544 321.52 545 324.42 Q 546 327.32 549.7 327.32 C 552.21 327.32 553.83 326.21 554.53 323.98 C 555.23 321.75 555.59 316.45 555.59 308.07 Z"
        fill="#ffd100"/>
    <path
        id="path_20"
        d="M 549.76 353 C 542.533 353.107 535.355 351.799 528.63 349.15 C 522.701 346.776 517.514 342.857 513.61 337.802 C 509.707 332.746 507.227 326.737 506.43 320.4 C 505.72 314.52 505.36 304.11 505.36 289.45 L 505.36 265.09 C 505.36 250.58 505.69 240.59 506.36 234.54 C 507.06 228.228 509.436 222.217 513.241 217.133 C 517.046 212.048 522.142 208.073 528 205.62 C 534.884 202.775 542.283 201.383 549.73 201.53 C 556.954 201.427 564.129 202.738 570.85 205.39 C 576.779 207.764 581.966 211.683 585.87 216.738 C 589.773 221.794 592.253 227.803 593.05 234.14 C 593.76 240.04 594.12 250.45 594.12 265.09 L 594.12 289.44 C 594.12 303.73 593.78 314.01 593.12 319.98 C 592.422 326.292 590.046 332.304 586.241 337.389 C 582.437 342.474 577.339 346.449 571.48 348.9 C 564.6 351.75 557.205 353.146 549.76 353 Z M 549.76 204.73 C 542.753 204.579 535.79 205.88 529.31 208.55 C 523.962 210.778 519.307 214.399 515.83 219.034 C 512.354 223.669 510.182 229.152 509.54 234.91 C 508.88 240.75 508.54 250.91 508.54 265.1 L 508.54 289.45 C 508.54 303.98 508.9 314.26 509.54 320.02 C 510.272 325.793 512.536 331.267 516.097 335.87 C 519.657 340.473 524.386 344.04 529.79 346.2 C 536.13 348.694 542.898 349.924 549.71 349.82 C 556.733 349.972 563.713 348.672 570.21 346 C 575.565 343.775 580.226 340.155 583.706 335.518 C 587.186 330.88 589.36 325.393 590 319.63 C 590.67 313.77 591 303.63 591 289.44 L 591 265.09 C 591 250.58 590.64 240.29 590 234.52 C 589.267 228.746 587.002 223.272 583.442 218.667 C 579.882 214.063 575.154 210.493 569.75 208.33 C 563.385 205.839 556.595 204.612 549.76 204.72 Z M 549.67 328.92 C 545.67 328.92 544.09 326.76 543.46 324.92 C 542.99 323.58 542.37 320.47 542.37 309.1 L 542.37 242.68 C 542.37 232.51 543.37 229.79 544.18 228.55 C 544.811 227.614 545.67 226.853 546.676 226.341 C 547.682 225.828 548.802 225.58 549.93 225.62 C 553.64 225.62 555.25 227.62 555.93 229.38 C 556.75 231.46 557.14 235.8 557.14 242.68 L 557.14 308.07 C 557.14 316.71 556.77 322.07 556.01 324.46 C 555.624 325.816 554.783 326.999 553.629 327.809 C 552.475 328.618 551.076 329.008 549.67 328.91 Z M 549.93 228.81 C 549.319 228.768 548.708 228.89 548.16 229.162 C 547.612 229.435 547.146 229.848 546.81 230.36 C 546.43 230.91 545.55 233.22 545.55 242.69 L 545.55 309.13 C 545.55 319.13 546.05 322.71 546.47 323.9 C 546.77 324.76 547.4 325.74 549.67 325.74 C 551.5 325.74 552.49 325.07 552.98 323.51 C 553.47 321.95 553.98 318.28 553.98 308.08 L 553.98 242.68 C 553.98 234.68 553.44 231.68 552.98 230.56 C 552.65 229.75 552 228.8 549.93 228.8 Z"
        fill="#2d2a26"/>
    <path
        id="path_21"
        d="M 639.77 206.11 L 639.77 319.93 L 662.26 319.93 L 662.26 348.41 L 602.76 348.41 L 602.76 206.11 Z"
        fill="#ffd100"/>
    <path
        id="path_22"
        d="M 662.26 350 L 602.76 350 C 602.338 350 601.932 349.833 601.632 349.535 C 601.332 349.237 601.163 348.832 601.16 348.41 L 601.16 206.11 C 601.163 205.688 601.332 205.283 601.632 204.985 C 601.932 204.687 602.338 204.52 602.76 204.52 L 639.76 204.52 C 640.181 204.523 640.584 204.691 640.881 204.989 C 641.179 205.286 641.347 205.689 641.35 206.11 L 641.35 318.34 L 662.25 318.34 C 662.672 318.34 663.076 318.508 663.374 318.806 C 663.672 319.104 663.84 319.508 663.84 319.93 L 663.84 348.41 C 663.84 348.83 663.674 349.233 663.378 349.531 C 663.082 349.829 662.68 349.997 662.26 350 Z M 604.35 346.82 L 660.67 346.82 L 660.67 321.52 L 639.77 321.52 C 639.348 321.52 638.942 321.353 638.642 321.055 C 638.342 320.757 638.173 320.352 638.17 319.93 L 638.17 207.71 L 604.35 207.71 Z"
        fill="#2d2a26"/>
    <path
        id="path_23"
        d="M 711.83 206.11 L 711.83 348.41 L 674.83 348.41 L 674.83 206.11 Z"
        fill="#ffd100"/>
    <path
        id="path_24"
        d="M 711.83 350 L 674.83 350 C 674.408 350 674.002 349.833 673.702 349.535 C 673.402 349.237 673.233 348.832 673.23 348.41 L 673.23 206.11 C 673.233 205.688 673.402 205.283 673.702 204.985 C 674.002 204.687 674.408 204.52 674.83 204.52 L 711.83 204.52 C 712.109 204.52 712.383 204.593 712.625 204.733 C 712.867 204.873 713.067 205.073 713.207 205.315 C 713.347 205.557 713.42 205.831 713.42 206.11 L 713.42 348.41 C 713.42 348.689 713.347 348.963 713.207 349.205 C 713.067 349.447 712.867 349.647 712.625 349.787 C 712.383 349.927 712.109 350 711.83 350 Z M 676.42 346.82 L 710.24 346.82 L 710.24 207.71 L 676.42 207.71 Z"
        fill="#2d2a26"/>
    <path
        id="path_25"
        d="M 32.93 348.41 L 33.93 348.41 L 33.93 254.54 L 47.51 348.41 L 70.5 348.41 L 83.37 252.35 L 83.37 348.41 L 115.71 348.41 L 115.71 206.11 L 67.62 206.11 L 59.11 272.57 L 53.86 236.37 Q 51.59 218.94 49.47 206.11 L 1.59 206.11 L 1.59 329.21 Z"
        fill="#ffd100"/>
    <path
        id="path_26"
        d="M 115.76 350 L 83.42 350 C 82.998 350 82.594 349.832 82.296 349.534 C 81.998 349.236 81.83 348.832 81.83 348.41 L 81.83 276.13 L 72.12 348.62 C 72.066 349.009 71.871 349.364 71.573 349.618 C 71.274 349.873 70.892 350.009 70.5 350 L 47.56 350 C 47.181 349.995 46.816 349.855 46.531 349.606 C 46.245 349.357 46.057 349.015 46 348.64 L 35.58 276.64 L 35.58 348.45 C 35.573 348.73 35.492 349.004 35.345 349.243 C 35.199 349.482 34.991 349.678 34.745 349.811 C 34.498 349.944 34.22 350.009 33.94 350 L 32.94 350 C 32.644 350.001 32.354 349.921 32.1 349.77 L 0.76 330.57 C 0.527 330.428 0.335 330.228 0.202 329.989 C 0.069 329.751 -0.001 329.483 0 329.21 L 0 206.11 C 0 205.688 0.168 205.284 0.466 204.986 C 0.764 204.688 1.168 204.52 1.59 204.52 L 49.47 204.52 C 49.84 204.529 50.195 204.667 50.474 204.91 C 50.754 205.152 50.94 205.485 51 205.85 C 52.43 214.46 53.91 224.65 55.4 236.16 L 59 260.8 L 66 205.91 C 66.051 205.527 66.239 205.174 66.529 204.919 C 66.82 204.663 67.193 204.521 67.58 204.52 L 115.72 204.52 C 116.142 204.52 116.548 204.687 116.848 204.985 C 117.148 205.283 117.317 205.688 117.32 206.11 L 117.32 348.41 C 117.318 348.826 117.153 349.224 116.862 349.521 C 116.571 349.818 116.176 349.99 115.76 350 Z M 85 346.82 L 114.16 346.82 L 114.16 207.71 L 69 207.71 L 60.67 272.77 C 60.622 273.151 60.437 273.502 60.15 273.757 C 59.864 274.013 59.494 274.156 59.11 274.16 C 58.731 274.145 58.368 274.002 58.079 273.756 C 57.791 273.509 57.594 273.172 57.52 272.8 L 52.27 236.59 C 50.85 225.69 49.45 215.99 48.1 207.71 L 3.18 207.71 L 3.18 328.32 L 32.35 346.19 L 32.35 254.54 C 32.362 254.141 32.524 253.76 32.804 253.475 C 33.084 253.19 33.461 253.02 33.86 253 C 34.262 252.976 34.659 253.103 34.971 253.356 C 35.284 253.61 35.491 253.972 35.55 254.37 L 48.94 346.87 L 69.1 346.87 L 81.8 252.19 C 81.848 251.788 82.049 251.419 82.362 251.162 C 82.675 250.905 83.076 250.779 83.48 250.81 C 83.88 250.83 84.258 250.999 84.54 251.284 C 84.821 251.569 84.985 251.95 85 252.35 Z"
        fill="#2d2a26"/>
    <path
        id="path_27"
        d="M 737.57 273.18 Q 742.07 277.31 755.86 286.45 Q 769.65 295.59 773.17 299.37 Q 776.61 303.24 776.6 315.81 Q 776.6 321.52 774.8 324.42 C 774.236 325.36 773.424 326.127 772.455 326.638 C 771.485 327.149 770.394 327.385 769.3 327.32 Q 765.61 327.32 764.16 325.03 C 763.16 323.51 762.71 320.08 762.71 314.75 L 762.71 297.44 L 728.35 297.44 L 728.35 306.75 Q 728.35 322.75 731.6 331.45 Q 734.85 340.15 745.36 345.78 Q 755.85 351.41 770.71 351.4 C 771.6 351.4 772.44 351.31 773.31 351.28 L 809.81 328.91 L 809.81 329 C 811.1 324.43 811.81 319.51 811.81 312 Q 811.81 291.08 805.39 281.67 Q 798.97 272.26 774.27 257.6 Q 765.65 252.52 763.81 248.9 Q 761.97 245.28 761.88 238.17 Q 761.88 232.64 763.6 229.91 C 764.115 229.04 764.858 228.327 765.747 227.846 C 766.636 227.365 767.64 227.135 768.65 227.18 C 769.494 227.099 770.345 227.24 771.118 227.591 C 771.89 227.942 772.556 228.49 773.05 229.18 Q 774.36 231.18 774.36 238.59 L 774.36 249.13 L 808.73 249.13 L 808.73 243.51 Q 808.73 226.51 805.43 219.51 Q 802.13 212.51 791.98 207.78 Q 781.84 203.12 767.42 203.12 Q 754.24 203.12 744.92 207.38 Q 735.6 211.64 731.43 219.2 Q 727.25 226.77 727.25 243.11 Q 727.25 254.45 730.2 261.74 C 731.783 266.05 734.3 269.957 737.57 273.18 Z"
        fill="#ffd100"/>
    <path
        id="path_28"
        d="M 770.71 353 C 760.58 353 751.8 351.05 744.61 347.19 C 737.42 343.33 732.41 338.19 730.11 332.02 C 727.88 326.02 726.75 317.56 726.75 306.76 L 726.75 297.45 C 726.753 297.028 726.922 296.623 727.222 296.325 C 727.522 296.027 727.928 295.86 728.35 295.86 L 762.71 295.86 C 762.989 295.86 763.263 295.933 763.505 296.073 C 763.747 296.213 763.947 296.413 764.087 296.655 C 764.227 296.897 764.3 297.171 764.3 297.45 L 764.3 314.76 C 764.3 321.31 765.06 323.48 765.51 324.2 C 765.75 324.58 766.51 325.74 769.3 325.74 C 770.123 325.801 770.947 325.632 771.679 325.252 C 772.412 324.873 773.025 324.297 773.45 323.59 C 774.45 321.91 775.01 319.3 775.01 315.82 C 775.01 305.93 773.36 302 772.01 300.44 C 769.78 297.99 764.01 293.73 755.01 287.79 C 745.8 281.7 739.58 277.18 736.51 274.36 C 733.051 270.985 730.38 266.887 728.69 262.36 C 726.69 257.36 725.63 250.86 725.63 243.13 C 725.63 231.85 727.06 223.78 730.01 218.45 C 732.96 213.12 737.73 208.93 744.23 205.95 C 750.73 202.97 758.42 201.54 767.39 201.54 C 777.2 201.54 785.68 203.16 792.62 206.35 C 799.56 209.54 804.49 213.8 806.85 218.86 C 809.21 223.92 810.29 231.91 810.29 243.57 L 810.29 249.19 C 810.29 249.612 810.123 250.018 809.825 250.318 C 809.527 250.618 809.122 250.787 808.7 250.79 L 774.31 250.79 C 773.888 250.787 773.483 250.618 773.185 250.318 C 772.887 250.018 772.72 249.612 772.72 249.19 L 772.72 238.64 C 772.72 232.41 771.98 230.58 771.66 230.09 C 771.34 229.6 770.59 228.8 768.6 228.8 C 767.858 228.757 767.119 228.921 766.466 229.274 C 765.812 229.628 765.27 230.156 764.9 230.8 C 763.9 232.36 763.42 234.85 763.42 238.22 C 763.42 242.68 764.01 246.04 765.16 248.22 C 765.92 249.71 768.23 252.29 775.02 256.3 C 791.85 266.3 802.2 274.3 806.65 280.85 C 811.1 287.4 813.35 297.85 813.35 312.07 C 813.51 317.935 812.837 323.794 811.35 329.47 C 811.273 329.738 811.128 329.982 810.928 330.177 C 810.728 330.371 810.48 330.51 810.21 330.58 L 774.14 352.68 C 773.907 352.83 773.637 352.913 773.36 352.92 L 772.36 352.97 C 771.81 353 771.27 353 770.71 353 Z M 729.94 299 L 729.94 306.72 C 729.94 317.14 731 325.26 733.09 330.86 C 735.09 336.26 739.49 340.8 746.09 344.34 C 752.69 347.88 761.09 349.78 770.69 349.78 C 771.18 349.78 771.69 349.78 772.13 349.72 L 772.81 349.72 L 808.45 327.88 C 809.718 322.699 810.29 317.372 810.15 312.04 C 810.15 298.48 808.08 288.58 804 282.61 C 799.92 276.64 789.57 268.61 773.38 259.01 C 767.32 255.43 763.7 252.37 762.32 249.67 C 760.94 246.97 760.22 243.27 760.22 238.21 C 760.22 234.21 760.86 231.21 762.22 229.1 C 762.883 228.006 763.825 227.108 764.95 226.498 C 766.074 225.888 767.341 225.589 768.62 225.63 C 771.87 225.63 773.53 227.12 774.35 228.37 C 775.03 229.37 775.93 231.62 775.93 238.65 L 775.93 247.65 L 807.11 247.65 L 807.11 243.65 C 807.11 232.65 806.05 224.76 803.96 220.28 C 801.87 215.8 797.67 212.28 791.29 209.28 C 784.91 206.28 776.73 204.77 767.39 204.77 C 758.88 204.77 751.53 206.15 745.56 208.89 C 739.59 211.63 735.39 215.32 732.79 220.03 C 730.19 224.74 728.79 232.59 728.79 243.17 C 728.79 250.49 729.79 256.56 731.61 261.17 C 733.125 265.253 735.515 268.956 738.61 272.02 C 741.55 274.72 747.61 279.13 756.7 285.13 C 766.1 291.3 771.86 295.61 774.31 298.31 C 776.9 301.23 778.15 306.95 778.15 315.82 C 778.15 319.96 777.49 323.05 776.15 325.27 C 775.437 326.433 774.426 327.385 773.222 328.027 C 772.017 328.669 770.663 328.977 769.3 328.92 C 766.3 328.92 764.09 327.92 762.82 325.92 C 761.66 324.08 761.12 320.54 761.12 314.78 L 761.12 299 Z"
        fill="#2d2a26"/>
</svg>
